<mxfile host="app.diagrams.net" agent="Mozilla/5.0 (Windows NT 10.0; Win64; x64) AppleWebKit/537.36 (KHTML, like Gecko) Chrome/131.0.0.0 Safari/537.36 Edg/131.0.0.0" version="25.0.3">
  <diagram id="C5RBs43oDa-KdzZeNtuy" name="Page-1">
    <mxGraphModel dx="1114" dy="652" grid="1" gridSize="10" guides="1" tooltips="1" connect="1" arrows="1" fold="1" page="1" pageScale="1" pageWidth="827" pageHeight="1169" math="0" shadow="0">
      <root>
        <mxCell id="WIyWlLk6GJQsqaUBKTNV-0" />
        <mxCell id="WIyWlLk6GJQsqaUBKTNV-1" parent="WIyWlLk6GJQsqaUBKTNV-0" />
        <mxCell id="WIyWlLk6GJQsqaUBKTNV-2" value="" style="rounded=0;html=1;jettySize=auto;orthogonalLoop=1;fontSize=11;endArrow=block;endFill=0;endSize=8;strokeWidth=1;shadow=0;labelBackgroundColor=none;edgeStyle=orthogonalEdgeStyle;" parent="WIyWlLk6GJQsqaUBKTNV-1" source="WIyWlLk6GJQsqaUBKTNV-3" edge="1">
          <mxGeometry relative="1" as="geometry">
            <mxPoint x="420" y="120" as="targetPoint" />
          </mxGeometry>
        </mxCell>
        <mxCell id="WIyWlLk6GJQsqaUBKTNV-3" value="&lt;font style=&quot;font-size: 14px;&quot;&gt;Démarrer&lt;/font&gt;" style="rounded=1;whiteSpace=wrap;html=1;fontSize=12;glass=0;strokeWidth=1;shadow=0;" parent="WIyWlLk6GJQsqaUBKTNV-1" vertex="1">
          <mxGeometry x="360" y="40" width="120" height="40" as="geometry" />
        </mxCell>
        <mxCell id="Gk9ltzugcBjqBewzTV9u-3" style="edgeStyle=orthogonalEdgeStyle;rounded=0;orthogonalLoop=1;jettySize=auto;html=1;" edge="1" parent="WIyWlLk6GJQsqaUBKTNV-1" target="Gk9ltzugcBjqBewzTV9u-1">
          <mxGeometry relative="1" as="geometry">
            <mxPoint x="420" y="250" as="sourcePoint" />
          </mxGeometry>
        </mxCell>
        <mxCell id="Gk9ltzugcBjqBewzTV9u-5" style="edgeStyle=orthogonalEdgeStyle;rounded=0;orthogonalLoop=1;jettySize=auto;html=1;entryX=0.5;entryY=0;entryDx=0;entryDy=0;" edge="1" parent="WIyWlLk6GJQsqaUBKTNV-1" source="Gk9ltzugcBjqBewzTV9u-1" target="Gk9ltzugcBjqBewzTV9u-4">
          <mxGeometry relative="1" as="geometry" />
        </mxCell>
        <mxCell id="Gk9ltzugcBjqBewzTV9u-8" style="edgeStyle=orthogonalEdgeStyle;rounded=0;orthogonalLoop=1;jettySize=auto;html=1;entryX=0.5;entryY=0;entryDx=0;entryDy=0;" edge="1" parent="WIyWlLk6GJQsqaUBKTNV-1" source="Gk9ltzugcBjqBewzTV9u-1" target="Gk9ltzugcBjqBewzTV9u-7">
          <mxGeometry relative="1" as="geometry" />
        </mxCell>
        <mxCell id="Gk9ltzugcBjqBewzTV9u-1" value="&lt;font style=&quot;font-size: 14px;&quot;&gt;Verifie si correspond aux critere de recherche&amp;nbsp;&lt;/font&gt;" style="ellipse;whiteSpace=wrap;html=1;aspect=fixed;" vertex="1" parent="WIyWlLk6GJQsqaUBKTNV-1">
          <mxGeometry x="360" y="300" width="120" height="120" as="geometry" />
        </mxCell>
        <mxCell id="Gk9ltzugcBjqBewzTV9u-10" style="edgeStyle=orthogonalEdgeStyle;rounded=0;orthogonalLoop=1;jettySize=auto;html=1;entryX=0.5;entryY=0;entryDx=0;entryDy=0;" edge="1" parent="WIyWlLk6GJQsqaUBKTNV-1" source="Gk9ltzugcBjqBewzTV9u-4" target="Gk9ltzugcBjqBewzTV9u-9">
          <mxGeometry relative="1" as="geometry" />
        </mxCell>
        <mxCell id="Gk9ltzugcBjqBewzTV9u-4" value="&lt;font style=&quot;font-size: 14px;&quot;&gt;Si correspondance ajout de la recette aux resultat&lt;/font&gt;" style="rounded=1;whiteSpace=wrap;html=1;" vertex="1" parent="WIyWlLk6GJQsqaUBKTNV-1">
          <mxGeometry x="160" y="460" width="160" height="70" as="geometry" />
        </mxCell>
        <mxCell id="Gk9ltzugcBjqBewzTV9u-7" value="&lt;font style=&quot;font-size: 14px;&quot;&gt;Si pas de correspondance ou manque de condition, n&#39;affiche rien&lt;/font&gt;" style="rounded=1;whiteSpace=wrap;html=1;" vertex="1" parent="WIyWlLk6GJQsqaUBKTNV-1">
          <mxGeometry x="520" y="460" width="160" height="70" as="geometry" />
        </mxCell>
        <mxCell id="Gk9ltzugcBjqBewzTV9u-13" value="" style="edgeStyle=orthogonalEdgeStyle;rounded=0;orthogonalLoop=1;jettySize=auto;html=1;" edge="1" parent="WIyWlLk6GJQsqaUBKTNV-1" source="Gk9ltzugcBjqBewzTV9u-9" target="Gk9ltzugcBjqBewzTV9u-12">
          <mxGeometry relative="1" as="geometry" />
        </mxCell>
        <mxCell id="Gk9ltzugcBjqBewzTV9u-9" value="&lt;font style=&quot;font-size: 14px;&quot;&gt;Retourne des résultats&lt;/font&gt;" style="rounded=1;whiteSpace=wrap;html=1;" vertex="1" parent="WIyWlLk6GJQsqaUBKTNV-1">
          <mxGeometry x="180" y="600" width="120" height="60" as="geometry" />
        </mxCell>
        <mxCell id="Gk9ltzugcBjqBewzTV9u-11" value="&lt;font style=&quot;font-size: 14px;&quot;&gt;Initialise le tableau des recettes&amp;nbsp;&lt;/font&gt;" style="ellipse;whiteSpace=wrap;html=1;aspect=fixed;" vertex="1" parent="WIyWlLk6GJQsqaUBKTNV-1">
          <mxGeometry x="365" y="130" width="110" height="110" as="geometry" />
        </mxCell>
        <mxCell id="Gk9ltzugcBjqBewzTV9u-12" value="&lt;font style=&quot;font-size: 14px;&quot;&gt;FIN&lt;/font&gt;" style="rounded=1;whiteSpace=wrap;html=1;" vertex="1" parent="WIyWlLk6GJQsqaUBKTNV-1">
          <mxGeometry x="180" y="720" width="120" height="60" as="geometry" />
        </mxCell>
      </root>
    </mxGraphModel>
  </diagram>
</mxfile>
